ffmpeg started on 2025-06-04 at 21:30:00
Report written to "D:\Convert\FFMetrics\reports\psnr_report-6.txt"
Log level: 32
Command line:
ffmpeg -hide_banner -nostdin -i "G:\\\xc0\xed\xe8\xec\xe5\\\xce\xed\xe3\xee\xe8\xed\xe3\xe8\\!_36_\xce\xf1\xe5\xed\xfc_2024\\DreamCast\\\xc5\xf1\xeb\xe8 \xe1\xfb \xec\xee\xff \xe6\xe5\xed\xe0 \xf1\xf2\xe0\xeb\xe0 \xec\xeb\xe0\xe4\xf8\xe5\xea\xeb\xe0\xf1\xf1\xed\xe8\xf6\xe5\xe9\\[DC] Tsuma Shougakusei ni Naru - 10_Telegram_HEVC.mkv" -i "G:\\\xc0\xed\xe8\xec\xe5\\\xce\xed\xe3\xee\xe8\xed\xe3\xe8\\!_36_\xce\xf1\xe5\xed\xfc_2024\\DreamCast\\\xc5\xf1\xeb\xe8 \xe1\xfb \xec\xee\xff \xe6\xe5\xed\xe0 \xf1\xf2\xe0\xeb\xe0 \xec\xeb\xe0\xe4\xf8\xe5\xea\xeb\xe0\xf1\xf1\xed\xe8\xf6\xe5\xe9\\[DC] Tsuma Shougakusei ni Naru - 10_Telegram.mp4" -lavfi "[0:v]settb=AVTB,setpts=PTS-STARTPTS,format=pix_fmts=yuv420p10,fps=24000/1001,scale=1920:1080:flags=bicubic[main];[1:v]settb=AVTB,setpts=PTS-STARTPTS,format=pix_fmts=yuv420p,fps=24000/1001,scale=1920:1080:flags=bicubic[ref];[main][ref]psnr=eof_action=endall:stats_file='D\\:/Convert/FFMetrics/logs/psnr_logfile-6.txt'" -f null -
Input #0, matroska,webm, from 'G:\Аниме\Онгоинги\!_36_Осень_2024\DreamCast\Если бы моя жена стала младшеклассницей\[DC] Tsuma Shougakusei ni Naru - 10_Telegram_HEVC.mkv':
  Metadata:
    COMPATIBLE_BRANDS: isomiso2avc1mp41
    MAJOR_BRAND     : isom
    MINOR_VERSION   : 512
    ENCODER         : Lavf61.7.100
  Duration: 00:23:46.56, start: -0.021000, bitrate: 887 kb/s
  Stream #0:0: Video: hevc (Main 10), yuv420p10le(tv, bt709, progressive), 1920x1080 [SAR 1:1 DAR 16:9], 23.98 fps, 23.98 tbr, 1k tbn (default)
      Metadata:
        HANDLER_NAME    : VideoHandler
        VENDOR_ID       : [0][0][0][0]
        ENCODER         : Lavc61.19.100 libx265
        BPS             : 690099
        DURATION        : 00:23:46.466708333
        NUMBER_OF_FRAMES: 34201
        NUMBER_OF_BYTES : 123050439
        _STATISTICS_WRITING_APP: mkvpropedit v66.0.0 ('Josie') 64-bit
        _STATISTICS_WRITING_DATE_UTC: 2025-05-30 16:00:56
        _STATISTICS_TAGS: BPS DURATION NUMBER_OF_FRAMES NUMBER_OF_BYTES
  Stream #0:1: Audio: aac (LC), 48000 Hz, stereo, fltp (default)
      Metadata:
        HANDLER_NAME    : SoundHandler
        VENDOR_ID       : [0][0][0][0]
        ENCODER         : Lavc61.19.100 aac
        BPS             : 193357
        DURATION        : 00:23:46.560000000
        NUMBER_OF_FRAMES: 66871
        NUMBER_OF_BYTES : 34479480
        _STATISTICS_WRITING_APP: mkvpropedit v66.0.0 ('Josie') 64-bit
        _STATISTICS_WRITING_DATE_UTC: 2025-05-30 16:00:56
        _STATISTICS_TAGS: BPS DURATION NUMBER_OF_FRAMES NUMBER_OF_BYTES
Input #1, mov,mp4,m4a,3gp,3g2,mj2, from 'G:\Аниме\Онгоинги\!_36_Осень_2024\DreamCast\Если бы моя жена стала младшеклассницей\[DC] Tsuma Shougakusei ni Naru - 10_Telegram.mp4':
  Metadata:
    major_brand     : isom
    minor_version   : 512
    compatible_brands: isomiso2avc1mp41
    encoder         : Lavf61.1.100
  Duration: 00:23:46.53, start: 0.000000, bitrate: 3459 kb/s
  Stream #1:0[0x1](und): Video: h264 (High) (avc1 / 0x31637661), yuv420p(tv, bt709, progressive), 1920x1080 [SAR 1:1 DAR 16:9], 3311 kb/s, 23.98 fps, 23.98 tbr, 24k tbn (default)
      Metadata:
        handler_name    : VideoHandler
        vendor_id       : [0][0][0][0]
        encoder         : Lavc61.3.100 h264_qsv
  Stream #1:1[0x2](und): Audio: aac (HE-AACv2) (mp4a / 0x6134706D), 48000 Hz, stereo, fltp, 144 kb/s (default)
      Metadata:
        handler_name    : SoundHandler
        vendor_id       : [0][0][0][0]
Stream mapping:
  Stream #0:0 (hevc) -> settb:default
  Stream #1:0 (h264) -> settb:default
  psnr:default -> Stream #0:0 (wrapped_avframe)
  Stream #0:1 -> #0:1 (aac (native) -> pcm_s16le (native))
Output #0, null, to 'pipe:':
  Metadata:
    COMPATIBLE_BRANDS: isomiso2avc1mp41
    MAJOR_BRAND     : isom
    MINOR_VERSION   : 512
    encoder         : Lavf61.7.100
  Stream #0:0: Video: wrapped_avframe, yuv420p10le(tv, bt709, progressive), 1920x1080 [SAR 1:1 DAR 16:9], q=2-31, 200 kb/s, 23.98 fps, 23.98 tbn
      Metadata:
        encoder         : Lavc61.19.100 wrapped_avframe
  Stream #0:1: Audio: pcm_s16le, 48000 Hz, stereo, s16, 1536 kb/s (default)
      Metadata:
        HANDLER_NAME    : SoundHandler
        VENDOR_ID       : [0][0][0][0]
        _STATISTICS_TAGS: BPS DURATION NUMBER_OF_FRAMES NUMBER_OF_BYTES
        BPS             : 193357
        DURATION        : 00:23:46.560000000
        NUMBER_OF_FRAMES: 66871
        NUMBER_OF_BYTES : 34479480
        _STATISTICS_WRITING_APP: mkvpropedit v66.0.0 ('Josie') 64-bit
        _STATISTICS_WRITING_DATE_UTC: 2025-05-30 16:00:56
        encoder         : Lavc61.19.100 pcm_s16le
frame=  174 fps=0.0 q=-0.0 size=N/A time=00:00:07.25 bitrate=N/A speed=13.9x    frame=  465 fps=447 q=-0.0 size=N/A time=00:00:19.39 bitrate=N/A speed=18.6x    frame=  756 fps=484 q=-0.0 size=N/A time=00:00:31.53 bitrate=N/A speed=20.2x    frame= 1030 fps=497 q=-0.0 size=N/A time=00:00:42.95 bitrate=N/A speed=20.7x    frame= 1314 fps=507 q=-0.0 size=N/A time=00:00:54.80 bitrate=N/A speed=21.1x    frame= 1584 fps=511 q=-0.0 size=N/A time=00:01:06.06 bitrate=N/A speed=21.3x    frame= 1793 fps=496 q=-0.0 size=N/A time=00:01:14.78 bitrate=N/A speed=20.7x    frame= 1956 fps=473 q=-0.0 size=N/A time=00:01:21.58 bitrate=N/A speed=19.7x    frame= 2089 fps=449 q=-0.0 size=N/A time=00:01:27.12 bitrate=N/A speed=18.7x    frame= 2266 fps=438 q=-0.0 size=N/A time=00:01:34.51 bitrate=N/A speed=18.3x    frame= 2508 fps=441 q=-0.0 size=N/A time=00:01:44.60 bitrate=N/A speed=18.4x    frame= 2748 fps=443 q=-0.0 size=N/A time=00:01:54.61 bitrate=N/A speed=18.5x    frame= 2933 fps=436 q=-0.0 size=N/A time=00:02:02.33 bitrate=N/A speed=18.2x    frame= 3103 fps=429 q=-0.0 size=N/A time=00:02:09.42 bitrate=N/A speed=17.9x    frame= 3315 fps=428 q=-0.0 size=N/A time=00:02:18.26 bitrate=N/A speed=17.8x    frame= 3477 fps=421 q=-0.0 size=N/A time=00:02:25.01 bitrate=N/A speed=17.5x    frame= 3604 fps=411 q=-0.0 size=N/A time=00:02:30.31 bitrate=N/A speed=17.1x    frame= 3784 fps=407 q=-0.0 size=N/A time=00:02:37.82 bitrate=N/A speed=  17x    frame= 4048 fps=412 q=-0.0 size=N/A time=00:02:48.83 bitrate=N/A speed=17.2x    frame= 4327 fps=419 q=-0.0 size=N/A time=00:03:00.47 bitrate=N/A speed=17.5x    frame= 4558 fps=420 q=-0.0 size=N/A time=00:03:10.10 bitrate=N/A speed=17.5x    frame= 4809 fps=423 q=-0.0 size=N/A time=00:03:20.57 bitrate=N/A speed=17.6x    frame= 5073 fps=427 q=-0.0 size=N/A time=00:03:31.58 bitrate=N/A speed=17.8x    frame= 5352 fps=432 q=-0.0 size=N/A time=00:03:43.22 bitrate=N/A speed=  18x    frame= 5609 fps=435 q=-0.0 size=N/A time=00:03:53.94 bitrate=N/A speed=18.1x    frame= 5845 fps=435 q=-0.0 size=N/A time=00:04:03.78 bitrate=N/A speed=18.2x    frame= 6113 fps=439 q=-0.0 size=N/A time=00:04:14.96 bitrate=N/A speed=18.3x    frame= 6384 fps=442 q=-0.0 size=N/A time=00:04:26.26 bitrate=N/A speed=18.4x    frame= 6651 fps=444 q=-0.0 size=N/A time=00:04:37.40 bitrate=N/A speed=18.5x    frame= 6919 fps=447 q=-0.0 size=N/A time=00:04:48.57 bitrate=N/A speed=18.6x    frame= 7169 fps=448 q=-0.0 size=N/A time=00:04:59.00 bitrate=N/A speed=18.7x    frame= 7413 fps=449 q=-0.0 size=N/A time=00:05:09.18 bitrate=N/A speed=18.7x    frame= 7688 fps=452 q=-0.0 size=N/A time=00:05:20.65 bitrate=N/A speed=18.8x    frame= 7956 fps=453 q=-0.0 size=N/A time=00:05:31.83 bitrate=N/A speed=18.9x    frame= 8225 fps=456 q=-0.0 size=N/A time=00:05:43.05 bitrate=N/A speed=  19x    frame= 8459 fps=455 q=-0.0 size=N/A time=00:05:52.81 bitrate=N/A speed=  19x    frame= 8710 fps=456 q=-0.0 size=N/A time=00:06:03.27 bitrate=N/A speed=  19x    frame= 8988 fps=458 q=-0.0 size=N/A time=00:06:14.87 bitrate=N/A speed=19.1x    frame= 9269 fps=460 q=-0.0 size=N/A time=00:06:26.59 bitrate=N/A speed=19.2x    frame= 9540 fps=462 q=-0.0 size=N/A time=00:06:37.89 bitrate=N/A speed=19.3x    frame= 9828 fps=464 q=-0.0 size=N/A time=00:06:49.90 bitrate=N/A speed=19.4x    frame=10079 fps=465 q=-0.0 size=N/A time=00:07:00.37 bitrate=N/A speed=19.4x    frame=10364 fps=467 q=-0.0 size=N/A time=00:07:12.26 bitrate=N/A speed=19.5x    frame=10593 fps=467 q=-0.0 size=N/A time=00:07:21.81 bitrate=N/A speed=19.5x    frame=10828 fps=466 q=-0.0 size=N/A time=00:07:31.61 bitrate=N/A speed=19.5x    frame=11062 fps=466 q=-0.0 size=N/A time=00:07:41.37 bitrate=N/A speed=19.4x    frame=11338 fps=468 q=-0.0 size=N/A time=00:07:52.88 bitrate=N/A speed=19.5x    frame=11626 fps=469 q=-0.0 size=N/A time=00:08:04.90 bitrate=N/A speed=19.6x    frame=11888 fps=470 q=-0.0 size=N/A time=00:08:15.82 bitrate=N/A speed=19.6x    frame=12144 fps=471 q=-0.0 size=N/A time=00:08:26.50 bitrate=N/A speed=19.6x    frame=12414 fps=472 q=-0.0 size=N/A time=00:08:37.76 bitrate=N/A speed=19.7x    frame=12672 fps=472 q=-0.0 size=N/A time=00:08:48.52 bitrate=N/A speed=19.7x    frame=12967 fps=474 q=-0.0 size=N/A time=00:09:00.83 bitrate=N/A speed=19.8x    frame=13246 fps=476 q=-0.0 size=N/A time=00:09:12.46 bitrate=N/A speed=19.8x    frame=13526 fps=477 q=-0.0 size=N/A time=00:09:24.14 bitrate=N/A speed=19.9x    frame=13791 fps=477 q=-0.0 size=N/A time=00:09:35.19 bitrate=N/A speed=19.9x    frame=14066 fps=478 q=-0.0 size=N/A time=00:09:46.66 bitrate=N/A speed=19.9x    frame=14335 fps=479 q=-0.0 size=N/A time=00:09:57.88 bitrate=N/A speed=  20x    frame=14617 fps=480 q=-0.0 size=N/A time=00:10:09.65 bitrate=N/A speed=  20x    frame=14875 fps=481 q=-0.0 size=N/A time=00:10:20.41 bitrate=N/A speed=  20x    frame=15148 fps=481 q=-0.0 size=N/A time=00:10:31.79 bitrate=N/A speed=20.1x    frame=15413 fps=482 q=-0.0 size=N/A time=00:10:42.85 bitrate=N/A speed=20.1x    frame=15667 fps=482 q=-0.0 size=N/A time=00:10:53.44 bitrate=N/A speed=20.1x    frame=15916 fps=482 q=-0.0 size=N/A time=00:11:03.82 bitrate=N/A speed=20.1x    frame=16186 fps=482 q=-0.0 size=N/A time=00:11:15.09 bitrate=N/A speed=20.1x    frame=16451 fps=483 q=-0.0 size=N/A time=00:11:26.14 bitrate=N/A speed=20.1x    frame=16719 fps=483 q=-0.0 size=N/A time=00:11:37.32 bitrate=N/A speed=20.2x    frame=16990 fps=484 q=-0.0 size=N/A time=00:11:48.62 bitrate=N/A speed=20.2x    frame=17226 fps=483 q=-0.0 size=N/A time=00:11:58.46 bitrate=N/A speed=20.2x    frame=17503 fps=484 q=-0.0 size=N/A time=00:12:10.02 bitrate=N/A speed=20.2x    frame=17782 fps=485 q=-0.0 size=N/A time=00:12:21.65 bitrate=N/A speed=20.2x    frame=18052 fps=486 q=-0.0 size=N/A time=00:12:32.91 bitrate=N/A speed=20.3x    frame=18303 fps=486 q=-0.0 size=N/A time=00:12:43.38 bitrate=N/A speed=20.3x    frame=18577 fps=486 q=-0.0 size=N/A time=00:12:54.81 bitrate=N/A speed=20.3x    frame=18853 fps=487 q=-0.0 size=N/A time=00:13:06.32 bitrate=N/A speed=20.3x    frame=19116 fps=487 q=-0.0 size=N/A time=00:13:17.29 bitrate=N/A speed=20.3x    frame=19391 fps=488 q=-0.0 size=N/A time=00:13:28.76 bitrate=N/A speed=20.3x    frame=19651 fps=488 q=-0.0 size=N/A time=00:13:39.61 bitrate=N/A speed=20.4x    frame=19898 fps=488 q=-0.0 size=N/A time=00:13:49.91 bitrate=N/A speed=20.3x    frame=20147 fps=488 q=-0.0 size=N/A time=00:14:00.29 bitrate=N/A speed=20.4x    frame=20392 fps=488 q=-0.0 size=N/A time=00:14:10.51 bitrate=N/A speed=20.3x    frame=20648 fps=488 q=-0.0 size=N/A time=00:14:21.19 bitrate=N/A speed=20.3x    frame=20919 fps=488 q=-0.0 size=N/A time=00:14:32.49 bitrate=N/A speed=20.4x    frame=21135 fps=487 q=-0.0 size=N/A time=00:14:41.50 bitrate=N/A speed=20.3x    frame=21406 fps=488 q=-0.0 size=N/A time=00:14:52.80 bitrate=N/A speed=20.4x    frame=21665 fps=488 q=-0.0 size=N/A time=00:15:03.61 bitrate=N/A speed=20.4x    frame=21929 fps=488 q=-0.0 size=N/A time=00:15:14.62 bitrate=N/A speed=20.4x    frame=22212 fps=489 q=-0.0 size=N/A time=00:15:26.42 bitrate=N/A speed=20.4x    frame=22467 fps=489 q=-0.0 size=N/A time=00:15:37.06 bitrate=N/A speed=20.4x    frame=22733 fps=489 q=-0.0 size=N/A time=00:15:48.15 bitrate=N/A speed=20.4x    frame=22988 fps=489 q=-0.0 size=N/A time=00:15:58.79 bitrate=N/A speed=20.4x    frame=23266 fps=490 q=-0.0 size=N/A time=00:16:10.38 bitrate=N/A speed=20.4x    frame=23548 fps=491 q=-0.0 size=N/A time=00:16:22.14 bitrate=N/A speed=20.5x    frame=23821 fps=491 q=-0.0 size=N/A time=00:16:33.53 bitrate=N/A speed=20.5x    frame=24062 fps=491 q=-0.0 size=N/A time=00:16:43.58 bitrate=N/A speed=20.5x    frame=24324 fps=491 q=-0.0 size=N/A time=00:16:54.51 bitrate=N/A speed=20.5x    frame=24599 fps=491 q=-0.0 size=N/A time=00:17:05.98 bitrate=N/A speed=20.5x    frame=24842 fps=491 q=-0.0 size=N/A time=00:17:16.11 bitrate=N/A speed=20.5x    frame=25098 fps=491 q=-0.0 size=N/A time=00:17:26.79 bitrate=N/A speed=20.5x    frame=25357 fps=491 q=-0.0 size=N/A time=00:17:37.59 bitrate=N/A speed=20.5x    frame=25656 fps=492 q=-0.0 size=N/A time=00:17:50.06 bitrate=N/A speed=20.5x    frame=25938 fps=493 q=-0.0 size=N/A time=00:18:01.83 bitrate=N/A speed=20.6x    frame=26212 fps=493 q=-0.0 size=N/A time=00:18:13.25 bitrate=N/A speed=20.6x    frame=26465 fps=493 q=-0.0 size=N/A time=00:18:23.81 bitrate=N/A speed=20.6x    frame=26741 fps=493 q=-0.0 size=N/A time=00:18:35.32 bitrate=N/A speed=20.6x    frame=27016 fps=494 q=-0.0 size=N/A time=00:18:46.79 bitrate=N/A speed=20.6x    frame=27297 fps=494 q=-0.0 size=N/A time=00:18:58.51 bitrate=N/A speed=20.6x    frame=27570 fps=495 q=-0.0 size=N/A time=00:19:09.89 bitrate=N/A speed=20.6x    frame=27837 fps=495 q=-0.0 size=N/A time=00:19:21.03 bitrate=N/A speed=20.6x    frame=28120 fps=495 q=-0.0 size=N/A time=00:19:32.83 bitrate=N/A speed=20.7x    frame=28360 fps=495 q=-0.0 size=N/A time=00:19:42.84 bitrate=N/A speed=20.7x    frame=28635 fps=495 q=-0.0 size=N/A time=00:19:54.31 bitrate=N/A speed=20.7x    frame=28896 fps=496 q=-0.0 size=N/A time=00:20:05.20 bitrate=N/A speed=20.7x    frame=29162 fps=496 q=-0.0 size=N/A time=00:20:16.29 bitrate=N/A speed=20.7x    frame=29450 fps=496 q=-0.0 size=N/A time=00:20:28.31 bitrate=N/A speed=20.7x    frame=29714 fps=496 q=-0.0 size=N/A time=00:20:39.32 bitrate=N/A speed=20.7x    frame=29985 fps=497 q=-0.0 size=N/A time=00:20:50.62 bitrate=N/A speed=20.7x    frame=30233 fps=497 q=-0.0 size=N/A time=00:21:00.96 bitrate=N/A speed=20.7x    frame=30508 fps=497 q=-0.0 size=N/A time=00:21:12.43 bitrate=N/A speed=20.7x    frame=30755 fps=497 q=-0.0 size=N/A time=00:21:22.73 bitrate=N/A speed=20.7x    frame=31038 fps=497 q=-0.0 size=N/A time=00:21:34.54 bitrate=N/A speed=20.7x    frame=31294 fps=497 q=-0.0 size=N/A time=00:21:45.22 bitrate=N/A speed=20.7x    frame=31553 fps=497 q=-0.0 size=N/A time=00:21:56.02 bitrate=N/A speed=20.7x    frame=31830 fps=497 q=-0.0 size=N/A time=00:22:07.57 bitrate=N/A speed=20.7x    frame=32106 fps=498 q=-0.0 size=N/A time=00:22:19.08 bitrate=N/A speed=20.8x    frame=32356 fps=498 q=-0.0 size=N/A time=00:22:29.51 bitrate=N/A speed=20.8x    frame=32616 fps=498 q=-0.0 size=N/A time=00:22:40.35 bitrate=N/A speed=20.8x    frame=32867 fps=498 q=-0.0 size=N/A time=00:22:50.82 bitrate=N/A speed=20.8x    frame=33118 fps=498 q=-0.0 size=N/A time=00:23:01.29 bitrate=N/A speed=20.8x    frame=33304 fps=497 q=-0.0 size=N/A time=00:23:09.05 bitrate=N/A speed=20.7x    frame=33457 fps=495 q=-0.0 size=N/A time=00:23:15.43 bitrate=N/A speed=20.6x    frame=33601 fps=493 q=-0.0 size=N/A time=00:23:21.44 bitrate=N/A speed=20.6x    frame=33746 fps=492 q=-0.0 size=N/A time=00:23:27.48 bitrate=N/A speed=20.5x    frame=33941 fps=491 q=-0.0 size=N/A time=00:23:35.62 bitrate=N/A speed=20.5x    frame=34173 fps=491 q=-0.0 size=N/A time=00:23:45.29 bitrate=N/A speed=20.5x    [Parsed_psnr_10 @ 000001c114bd0040] PSNR y:49.235135 u:50.854488 v:51.294323 average:49.764744 min:39.593841 max:inf
[out#0/null @ 000001c113a44100] video:14696KiB audio:267484KiB subtitle:0KiB other streams:0KiB global headers:0KiB muxing overhead: unknown
frame=34201 fps=491 q=-0.0 Lsize=N/A time=00:23:46.46 bitrate=N/A speed=20.5x    
